<svg width="64" height="64" viewBox="0 0 64 64" fill="none" xmlns="http://www.w3.org/2000/svg">
  <defs>
    <linearGradient id="johnBg" x1="0%" y1="0%" x2="100%" y2="100%">
      <stop offset="0%" style="stop-color:#667eea;stop-opacity:1" />
      <stop offset="100%" style="stop-color:#764ba2;stop-opacity:1" />
    </linearGradient>
    <linearGradient id="johnSkin" x1="0%" y1="0%" x2="100%" y2="100%">
      <stop offset="0%" style="stop-color:#fbbf24;stop-opacity:1" />
      <stop offset="100%" style="stop-color:#f59e0b;stop-opacity:1" />
    </linearGradient>
  </defs>
  
  <!-- Background Circle -->
  <circle cx="32" cy="32" r="32" fill="url(#johnBg)"/>
  
  <!-- Face -->
  <circle cx="32" cy="26" r="11" fill="url(#johnSkin)"/>
  
  <!-- Hair -->
  <path d="M21 20 C21 15, 26 12, 32 12 C38 12, 43 15, 43 20 C43 18, 40 16, 32 16 C24 16, 21 18, 21 20 Z" fill="#8b4513"/>
  
  <!-- Body -->
  <path d="M32 37 C20 37, 14 42, 14 52 L14 64 L50 64 L50 52 C50 42, 44 37, 32 37 Z" fill="url(#johnSkin)"/>
  
  <!-- Shirt -->
  <path d="M32 37 C20 37, 14 42, 14 52 L14 64 L50 64 L50 52 C50 42, 44 37, 32 37 Z" fill="#3b82f6"/>
  
  <!-- Eyes -->
  <circle cx="28" cy="24" r="2" fill="#1f2937"/>
  <circle cx="36" cy="24" r="2" fill="#1f2937"/>
  <circle cx="28.5" cy="23.5" r="0.5" fill="#ffffff"/>
  <circle cx="36.5" cy="23.5" r="0.5" fill="#ffffff"/>
  
  <!-- Nose -->
  <ellipse cx="32" cy="27" rx="1" ry="1.5" fill="#e5a663"/>
  
  <!-- Smile -->
  <path d="M28 30 Q32 33 36 30" stroke="#1f2937" stroke-width="1.5" fill="none" stroke-linecap="round"/>
</svg>