<svg width="64" height="64" viewBox="0 0 64 64" fill="none" xmlns="http://www.w3.org/2000/svg">
  <defs>
    <linearGradient id="mariaBg" x1="0%" y1="0%" x2="100%" y2="100%">
      <stop offset="0%" style="stop-color:#ec4899;stop-opacity:1" />
      <stop offset="100%" style="stop-color:#f97316;stop-opacity:1" />
    </linearGradient>
    <linearGradient id="mariaSkin" x1="0%" y1="0%" x2="100%" y2="100%">
      <stop offset="0%" style="stop-color:#fbbf24;stop-opacity:1" />
      <stop offset="100%" style="stop-color:#f59e0b;stop-opacity:1" />
    </linearGradient>
  </defs>
  
  <!-- Background Circle -->
  <circle cx="32" cy="32" r="32" fill="url(#mariaBg)"/>
  
  <!-- Face -->
  <circle cx="32" cy="26" r="11" fill="url(#mariaSkin)"/>
  
  <!-- Hair (longer, feminine style) -->
  <path d="M20 18 C20 13, 25 10, 32 10 C39 10, 44 13, 44 18 C44 22, 42 25, 40 27 C38 25, 35 24, 32 24 C29 24, 26 25, 24 27 C22 25, 20 22, 20 18 Z" fill="#8b4513"/>
  <path d="M18 22 C18 20, 19 18, 21 17 C20 19, 20 21, 22 23 C20 24, 18 23, 18 22 Z" fill="#8b4513"/>
  <path d="M46 22 C46 20, 45 18, 43 17 C44 19, 44 21, 42 23 C44 24, 46 23, 46 22 Z" fill="#8b4513"/>
  
  <!-- Body -->
  <path d="M32 37 C20 37, 14 42, 14 52 L14 64 L50 64 L50 52 C50 42, 44 37, 32 37 Z" fill="url(#mariaSkin)"/>
  
  <!-- Dress -->
  <path d="M32 37 C20 37, 14 42, 14 52 L14 64 L50 64 L50 52 C50 42, 44 37, 32 37 Z" fill="#ec4899"/>
  
  <!-- Eyes -->
  <circle cx="28" cy="24" r="2" fill="#1f2937"/>
  <circle cx="36" cy="24" r="2" fill="#1f2937"/>
  <circle cx="28.5" cy="23.5" r="0.5" fill="#ffffff"/>
  <circle cx="36.5" cy="23.5" r="0.5" fill="#ffffff"/>
  
  <!-- Eyelashes -->
  <path d="M26 22 L27 21" stroke="#1f2937" stroke-width="0.5"/>
  <path d="M30 21 L30 20" stroke="#1f2937" stroke-width="0.5"/>
  <path d="M34 21 L34 20" stroke="#1f2937" stroke-width="0.5"/>
  <path d="M38 22 L37 21" stroke="#1f2937" stroke-width="0.5"/>
  
  <!-- Nose -->
  <ellipse cx="32" cy="27" rx="1" ry="1.5" fill="#e5a663"/>
  
  <!-- Smile -->
  <path d="M28 30 Q32 33 36 30" stroke="#1f2937" stroke-width="1.5" fill="none" stroke-linecap="round"/>
  
  <!-- Lipstick -->
  <ellipse cx="32" cy="31" rx="2" ry="1" fill="#dc2626"/>
</svg>